<?xml version="1.0" standalone="no"?>
<!DOCTYPE svg PUBLIC "-//W3C//DTD SVG 20010904//EN"
 "http://www.w3.org/TR/2001/REC-SVG-20010904/DTD/svg10.dtd">
<svg version="1.0" xmlns="http://www.w3.org/2000/svg"
 width="1367.000000pt" height="341.000000pt" viewBox="0 0 1367.000000 341.000000"
 preserveAspectRatio="xMidYMid meet">
<metadata>
Created by potrace 1.11, written by Peter Selinger 2001-2013
</metadata>
<g transform="translate(0.000000,341.000000) scale(0.100000,-0.100000)"
fill="#999999" stroke="none">
<path d="M8825 2560 c-8 -13 19 -68 57 -114 30 -36 98 -165 98 -184 0 -21 61
-142 71 -142 21 0 2 107 -30 174 -17 34 -31 66 -31 71 0 4 -16 30 -35 56 -19
27 -35 54 -35 60 0 21 -34 67 -57 78 -29 13 -30 13 -38 1z"/>
<path d="M947 2416 c-18 -18 -45 -50 -62 -71 -16 -20 -37 -45 -46 -54 -9 -9
-19 -26 -22 -39 -12 -48 22 -32 102 47 44 45 82 81 85 81 3 0 15 -18 26 -41
18 -35 19 -42 7 -52 -8 -7 -23 -34 -33 -62 -10 -27 -33 -68 -51 -92 -64 -84
-100 -193 -89 -274 8 -56 67 -191 100 -227 11 -13 59 -42 106 -63 47 -22 96
-46 110 -53 14 -8 40 -17 58 -21 17 -3 32 -10 32 -15 0 -11 45 -27 115 -39 60
-11 225 -8 244 4 14 8 -7 52 -28 60 -9 4 -77 8 -152 10 -127 4 -140 6 -174 30
-21 14 -44 25 -52 25 -15 0 -58 21 -163 78 -50 27 -80 61 -105 122 -4 8 -12
26 -19 40 -23 45 -26 88 -10 138 25 74 45 114 80 157 18 22 39 57 47 78 19 44
44 48 53 10 4 -16 27 -70 52 -121 42 -88 63 -114 80 -97 15 15 3 95 -21 137
-13 24 -35 72 -48 108 -26 73 -48 114 -98 183 -44 60 -76 63 -124 13z"/>
<path d="M12146 2295 c-9 -9 -16 -30 -16 -46 0 -64 48 -207 70 -210 5 -1 14
-2 19 -3 5 0 26 -15 47 -32 31 -25 43 -44 57 -92 9 -34 17 -68 17 -76 0 -14
20 -66 41 -108 5 -10 9 -29 9 -42 0 -39 11 -56 35 -56 31 0 43 35 21 59 -9 10
-16 28 -16 42 0 13 -16 74 -35 134 -44 138 -45 161 -7 168 16 3 47 21 70 40
46 39 103 52 215 50 101 -2 159 -46 182 -138 16 -66 0 -456 -20 -495 -21 -42
-19 -52 13 -48 21 2 32 13 49 48 21 42 22 60 24 250 0 113 -2 223 -7 245 -18
96 -75 153 -178 180 -68 18 -172 13 -216 -10 -16 -8 -42 -15 -58 -15 -18 0
-51 -15 -82 -36 -60 -41 -69 -38 -96 34 -19 51 -93 163 -111 169 -6 2 -18 -3
-27 -12z m86 -180 c10 -39 -8 -57 -22 -21 -5 15 -10 34 -10 42 0 26 23 10 32
-21z"/>
<path d="M4754 2217 c-16 -42 54 -118 133 -144 26 -9 55 -21 63 -28 8 -7 36
-17 62 -24 119 -29 223 7 216 73 -4 39 -30 46 -46 12 -10 -22 -19 -25 -88 -31
-58 -6 -83 -4 -98 6 -46 29 -133 75 -161 84 -22 7 -31 17 -33 38 -2 19 -9 27
-23 27 -11 0 -22 -6 -25 -13z"/>
<path d="M9244 2209 c-22 -28 -24 -49 -6 -50 60 -3 210 -10 224 -10 9 0 21
-12 27 -27 9 -23 42 -230 43 -272 1 -17 33 -168 46 -215 5 -18 4 -41 -2 -57
-14 -38 11 -66 43 -49 26 14 28 73 7 171 -15 67 -60 307 -71 372 -4 23 -1 39
6 44 20 12 122 10 149 -3 14 -7 41 -13 61 -13 31 0 38 -4 43 -25 6 -22 9 -24
26 -15 27 15 26 60 -3 81 -21 15 -77 25 -312 55 -194 25 -269 28 -281 13z"/>
<path d="M7296 2201 c-4 -6 -18 -11 -30 -11 -35 0 -116 -39 -116 -55 0 -11 11
-13 53 -7 28 4 96 7 150 7 88 0 100 -2 110 -20 15 -25 66 -212 67 -243 0 -12
14 -64 30 -115 24 -70 31 -111 31 -172 1 -83 10 -115 33 -115 28 0 40 31 38
97 -2 36 -7 73 -11 82 -5 9 -11 36 -15 61 l-7 46 96 -4 c90 -4 100 -3 152 24
70 35 96 73 90 131 -5 50 -13 60 -88 123 -87 73 -275 145 -415 160 -54 6 -113
13 -130 16 -18 3 -34 1 -38 -5z m399 -131 c34 -17 65 -30 69 -30 20 0 137 -98
143 -118 10 -40 -12 -70 -59 -82 -24 -6 -53 -15 -66 -20 -35 -15 -103 -11
-142 8 -29 14 -37 26 -46 63 -7 25 -16 55 -22 65 -5 10 -13 42 -16 69 -4 28
-10 59 -13 69 -5 17 -1 18 43 12 26 -3 75 -20 109 -36z"/>
<path d="M11695 2167 c-49 -8 -97 -20 -163 -39 -39 -12 -65 -54 -41 -69 8 -5
33 -9 57 -9 23 0 42 -2 42 -6 0 -3 -9 -24 -19 -47 -11 -24 -23 -55 -26 -70 -4
-16 -19 -34 -36 -43 -16 -8 -32 -26 -35 -39 -7 -30 -3 -29 -49 -9 -38 15 -123
28 -180 26 -16 0 -42 4 -57 10 -15 6 -35 7 -44 4 -26 -10 3 -36 40 -36 18 0
37 -5 42 -10 6 -6 39 -15 75 -21 37 -7 77 -21 95 -35 17 -12 43 -26 57 -29 71
-18 11 -69 -94 -80 -64 -7 -183 5 -265 26 -28 7 -45 19 -53 35 -13 28 -38 23
-47 -11 -14 -55 33 -88 158 -110 197 -35 299 -14 387 77 16 16 19 14 58 -26
46 -45 175 -106 226 -106 16 0 37 -5 47 -10 31 -17 198 12 251 43 58 34 93 81
85 113 -7 28 -24 32 -33 7 -9 -26 -44 -63 -60 -63 -8 0 -23 -9 -35 -20 -13
-12 -38 -21 -62 -22 -111 -5 -182 -4 -191 2 -5 4 -26 11 -45 14 -54 11 -81 26
-132 75 -40 38 -48 51 -48 82 0 25 5 39 16 43 9 4 64 1 123 -4 156 -16 243 9
155 46 -27 11 -63 15 -134 12 -79 -2 -101 1 -123 15 -15 10 -27 24 -27 33 0
20 27 73 50 99 10 11 20 33 22 50 4 39 32 45 228 44 85 -1 159 -1 164 0 5 1 0
12 -13 25 -17 18 -37 25 -94 31 -102 11 -214 11 -272 2z m-165 -377 c0 -5 -4
-10 -10 -10 -5 0 -10 5 -10 10 0 6 5 10 10 10 6 0 10 -4 10 -10z"/>
<path d="M11085 2161 c-11 -5 -44 -9 -74 -10 -68 -1 -94 -18 -116 -76 -16 -39
-16 -52 -5 -88 13 -47 36 -77 57 -77 8 0 21 -6 28 -14 15 -14 94 -30 103 -21
12 12 -14 37 -51 50 -20 7 -43 18 -51 24 -18 15 -28 79 -15 103 12 22 107 68
140 68 11 0 22 7 26 16 4 11 13 14 30 9 18 -4 24 -2 21 7 -5 15 -64 21 -93 9z"/>
<path d="M8160 2136 c-66 -33 -110 -88 -110 -137 0 -44 21 -89 50 -107 10 -6
61 -20 112 -31 51 -11 118 -27 148 -36 30 -9 72 -20 92 -25 46 -12 125 -55
157 -85 19 -19 21 -26 12 -44 -41 -75 -289 -103 -400 -44 -24 12 -50 23 -57
23 -8 0 -14 4 -14 8 0 5 -6 17 -14 27 -12 16 -16 17 -30 6 -45 -38 17 -106
128 -141 60 -18 89 -21 181 -18 102 3 115 6 178 37 78 39 102 71 91 126 -10
54 -109 123 -204 145 -30 7 -70 18 -88 26 -18 8 -41 14 -52 14 -10 0 -39 9
-65 20 -26 11 -60 20 -76 20 -43 0 -89 37 -89 72 0 77 165 128 318 99 36 -7
42 -6 42 9 0 30 -74 53 -177 55 -76 2 -99 -1 -133 -19z"/>
<path d="M8866 2131 c-11 -12 -25 -65 -39 -152 -11 -74 -25 -136 -29 -137 -4
-2 -11 -20 -14 -41 -4 -27 -14 -41 -35 -53 -38 -22 -37 -46 4 -63 l34 -14 -10
-53 c-15 -89 21 -141 59 -83 9 13 18 53 21 87 8 88 12 91 100 83 89 -8 146
-37 198 -100 37 -45 68 -57 79 -30 5 13 -17 48 -117 191 -12 18 -30 45 -39 60
-10 16 -33 54 -53 84 -19 31 -34 68 -35 86 0 18 -9 39 -21 50 -12 10 -32 38
-46 61 -28 49 -33 51 -57 24z m79 -188 c16 -32 46 -87 67 -122 l39 -64 -77 6
c-41 4 -80 10 -86 13 -6 4 -7 42 -3 108 10 141 16 147 60 59z"/>
<path d="M11220 2120 c0 -5 5 -10 11 -10 5 0 7 5 4 10 -3 6 -8 10 -11 10 -2 0
-4 -4 -4 -10z"/>
<path d="M3450 2099 c-84 -15 -146 -19 -233 -16 -102 4 -119 2 -127 -12 -12
-24 3 -44 28 -37 12 4 34 0 51 -8 39 -21 143 -21 266 -1 105 17 160 41 160 71
0 25 -11 25 -145 3z"/>
<path d="M6055 2023 c-16 -8 -38 -22 -47 -30 -15 -13 -22 -13 -65 3 -51 20
-109 22 -295 11 -59 -3 -117 -11 -129 -17 -12 -7 -73 -15 -136 -20 -62 -4
-117 -11 -121 -15 -10 -10 27 -34 72 -46 38 -10 83 -8 153 6 38 8 39 5 48
-125 4 -52 13 -120 21 -151 16 -67 18 -115 4 -124 -17 -10 -11 -32 15 -62 l25
-28 21 25 c18 22 20 33 15 85 -11 110 -48 323 -61 357 -11 28 48 51 155 59
118 8 178 -3 191 -38 5 -14 19 -27 30 -30 19 -5 20 -11 14 -57 -4 -28 -11 -59
-16 -68 -5 -9 -9 -26 -9 -38 0 -35 40 -144 62 -167 40 -43 235 -101 318 -94
14 1 45 2 70 1 128 -1 265 68 244 124 -7 19 -34 22 -34 2 0 -21 -23 -35 -84
-51 -55 -14 -283 -24 -302 -13 -5 4 -27 9 -49 13 -22 4 -59 19 -82 32 -36 21
-43 31 -52 71 -14 68 1 87 75 95 32 3 94 1 137 -4 85 -11 104 -5 83 24 -15 20
-140 34 -160 18 -7 -6 -33 -5 -71 3 -58 12 -60 13 -58 41 1 16 11 41 21 54 20
27 80 41 235 56 50 4 77 11 74 18 -5 16 -102 36 -174 37 -46 0 -63 4 -63 13 0
13 -31 48 -41 47 -2 -1 -17 -8 -34 -17z"/>
<path d="M3820 1986 c0 -25 13 -78 28 -118 15 -40 36 -102 46 -138 10 -36 22
-74 27 -85 18 -42 39 -111 39 -130 0 -33 27 -99 44 -110 51 -32 39 86 -27 275
-22 63 -49 141 -60 173 -33 93 -5 92 43 -3 74 -146 174 -241 380 -361 135 -78
178 -75 221 17 59 125 -41 311 -227 422 -81 49 -107 52 -130 17 -16 -25 -16
-27 6 -50 16 -17 34 -25 56 -25 83 0 182 -88 223 -198 34 -94 28 -172 -15
-172 -31 0 -198 93 -255 142 -157 134 -159 136 -253 288 -47 74 -76 100 -113
100 -32 0 -33 -1 -33 -44z"/>
<path d="M2115 2011 c-28 -4 -41 -12 -43 -25 -6 -31 12 -37 127 -45 l111 -7
47 -41 48 -41 -4 -58 c-4 -68 -3 -68 -55 -125 -25 -27 -49 -44 -65 -45 -52 -3
-57 -5 -36 -14 31 -13 -1 -12 -75 4 -127 26 -236 -1 -204 -51 12 -20 20 -20
187 -7 94 6 111 2 87 -22 -6 -6 -13 -47 -17 -92 -9 -122 21 -193 102 -234 47
-25 253 -42 310 -27 27 8 40 6 60 -7 20 -13 28 -14 40 -4 13 11 14 29 9 100
l-7 87 159 1 159 1 34 -64 c34 -67 63 -85 76 -46 7 23 -54 176 -93 235 -16 23
-32 53 -35 67 -4 13 -21 47 -39 76 -18 29 -53 89 -78 134 -44 81 -107 153
-144 165 -28 9 -51 -21 -53 -69 -2 -49 -39 -260 -52 -297 -14 -38 -23 -197
-13 -217 5 -10 8 -32 5 -48 -3 -23 -14 -35 -45 -50 -38 -18 -43 -18 -126 -3
-48 10 -103 20 -122 23 -21 3 -42 16 -54 31 -39 55 -28 231 16 255 11 6 35 8
54 4 32 -6 47 6 24 20 -19 12 -10 62 18 101 32 44 44 81 45 136 3 115 -195
225 -358 199z m722 -233 c12 -13 38 -54 59 -93 21 -38 46 -82 56 -97 10 -14
18 -35 18 -45 0 -11 13 -37 30 -60 16 -22 27 -43 23 -47 -8 -8 -246 -8 -267 0
-19 7 -21 61 -5 149 6 33 16 89 23 125 16 95 27 107 63 68z"/>
<path d="M4695 1989 c-63 -26 -75 -36 -75 -64 0 -18 9 -26 36 -35 l36 -12 -21
-22 c-50 -53 -62 -162 -27 -241 43 -99 72 -148 101 -174 44 -38 148 -71 228
-71 56 0 70 4 133 43 97 58 179 131 171 152 -6 14 -9 14 -36 1 -16 -9 -42 -26
-57 -39 -41 -35 -140 -82 -201 -96 -44 -11 -59 -10 -105 4 -30 10 -68 30 -86
46 -34 30 -106 155 -97 169 8 12 137 23 267 22 65 0 120 3 123 8 9 14 -24 39
-68 51 -28 8 -88 9 -186 4 l-144 -7 6 37 c7 44 48 87 102 107 33 12 70 13 203
7 110 -5 172 -5 190 3 15 6 22 12 15 15 -7 2 -10 10 -7 17 8 22 -23 28 -188
36 -178 10 -194 13 -201 40 -7 26 -46 25 -112 -1z"/>
<path d="M6360 1971 c0 -6 6 -11 14 -11 7 0 19 -7 26 -15 8 -10 20 -13 34 -9
12 4 37 6 56 5 68 -4 7 19 -97 36 -21 3 -33 1 -33 -6z"/>
<path d="M6535 1910 c11 -5 34 -9 50 -9 23 -1 26 2 15 9 -8 5 -31 9 -50 9 -29
0 -31 -2 -15 -9z"/>
<path d="M3373 1890 c-109 -44 -152 -118 -155 -264 -2 -87 -1 -93 30 -138 35
-50 79 -91 121 -112 35 -17 240 -39 294 -31 107 16 196 82 197 145 0 24 6 39
21 48 15 10 19 21 17 45 -4 42 -35 47 -76 13 -16 -15 -37 -26 -45 -26 -18 0
-40 -24 -30 -33 3 -4 17 -7 29 -7 17 0 25 -7 30 -24 8 -32 1 -42 -49 -69 -38
-20 -56 -22 -182 -22 -193 0 -234 18 -285 122 -23 49 -24 78 -6 147 15 58 61
117 109 139 43 21 130 13 169 -14 50 -35 75 -18 43 28 -26 37 -90 63 -153 62
-31 0 -67 -4 -79 -9z"/>
</g>
</svg>
